HIERARCHY
ROOT Hips
{
	OFFSET 4.587181 114.993721 -2.254644
	CHANNELS 6 Xposition Yposition Zposition Xrotation Yrotation Zrotation
	JOINT Chest
	{
		OFFSET 1.902796 13.324776 2.232485
		CHANNELS 3 Xrotation Yrotation Zrotation
		JOINT Chest2
		{
			OFFSET -3.019516 19.896133 7.354798
			CHANNELS 3 Xrotation Yrotation Zrotation
			JOINT Chest3
			{
				OFFSET -0.182663 14.581253 3.189636
				CHANNELS 3 Xrotation Yrotation Zrotation
				JOINT Neck
				{
					OFFSET 0.443281 16.713150 4.369216
					CHANNELS 3 Xrotation Yrotation Zrotation
					JOINT Head
					{
						OFFSET 1.691190 9.903564 2.981127
						CHANNELS 3 Xrotation Yrotation Zrotation
						End Site
						{
							OFFSET 1.693519 9.923996 2.910997
						}
					}
				}
				JOINT LeftCollar
				{
					OFFSET 4.433842 11.951767 6.269040
					CHANNELS 3 Xrotation Yrotation Zrotation
					JOINT LeftUpArm
					{
						OFFSET 16.610138 0.900772 -5.638374
						CHANNELS 3 Xrotation Yrotation Zrotation
						JOINT LeftLowArm
						{
							OFFSET 31.783724 -5.406570 10.014563
							CHANNELS 3 Xrotation Yrotation Zrotation
							JOINT LeftHand
							{
								OFFSET 20.703178 -5.319672 21.071922
								CHANNELS 3 Xrotation Yrotation Zrotation
								End Site
								{
									OFFSET 4.524811 -1.162659 4.605389
								}
							}
						}
					}
				}
				JOINT RightCollar
				{
					OFFSET -3.973843 12.241928 6.012694
					CHANNELS 3 Xrotation Yrotation Zrotation
					JOINT RightUpArm
					{
						OFFSET -16.163057 1.772827 -6.641466
						CHANNELS 3 Xrotation Yrotation Zrotation
						JOINT RightLowArm
						{
							OFFSET -33.222298 -3.282150 5.024031
							CHANNELS 3 Xrotation Yrotation Zrotation
							JOINT RightHand
							{
								OFFSET -20.804585 -8.361832 19.955044
								CHANNELS 3 Xrotation Yrotation Zrotation
								End Site
								{
									OFFSET -4.547043 -1.827560 4.361378
								}
							}
						}
					}
				}
			}
		}
	}
	JOINT LeftUpLeg
	{
		OFFSET 9.526026 -1.787056 2.545663
		CHANNELS 3 Xrotation Yrotation Zrotation
		JOINT LeftLowLeg
		{
			OFFSET 4.288517 -45.494186 12.485116
			CHANNELS 3 Xrotation Yrotation Zrotation
			JOINT LeftFoot
			{
				OFFSET -5.660347 -40.192608 -18.790514
				CHANNELS 3 Xrotation Yrotation Zrotation
				JOINT LeftToe
				{
					OFFSET 1.350027 -10.341324 21.231918
					CHANNELS 3 Xrotation Yrotation Zrotation
					End Site
					{
						OFFSET -1.804236 5.187477 23.008556
					}
				}
			}
		}
	}
	JOINT RightUpLeg
	{
		OFFSET -9.526058 1.786858 -2.545696
		CHANNELS 3 Xrotation Yrotation Zrotation
		JOINT RightLowLeg
		{
			OFFSET -45.453140 -8.373032 10.388254
			CHANNELS 3 Xrotation Yrotation Zrotation
			JOINT RightFoot
			{
				OFFSET 6.482105 -34.881889 -27.236301
				CHANNELS 3 Xrotation Yrotation Zrotation
				JOINT RightToe
				{
					OFFSET -19.737385 -12.023064 5.043680
					CHANNELS 3 Xrotation Yrotation Zrotation
					End Site
					{
						OFFSET -21.466198 3.217010 9.402613
					}
				}
			}
		}
	}
}
MOTION
Frames: 7
Frame Time: 0.033333
8.377094 98.128059 -3.610416 2.072697 -8.976510 15.792526 7.353366 -0.392396 -1.727269 -5.928968 3.466525 -3.566291 0.872381 -8.700309 -7.461867 -2.933120 12.097424 -4.112081 0.000002 -0.000000 -0.000002 6.329672 2.810022 -8.484791 11.102606 16.199105 -3.881138 6.108905 -51.171104 -14.042310 -0.000003 -0.000001 0.000003 0.915363 -5.881374 -11.687733 10.066621 -2.073270 -3.205781 -5.081083 51.411886 26.348213 -0.000002 0.000001 0.000002 -11.987871 0.603390 -16.157933 10.837053 -1.387221 -5.409222 -17.019853 2.686755 10.065103 -0.000002 0.000001 -0.000000 -10.846615 11.159196 3.410769 -3.015065 -6.060458 25.033750 6.744466 -1.723805 2.263005 0.000000 -0.000001 -0.000004 
8.130613 98.030998 -3.687954 1.455204 -7.198057 15.745017 7.824474 -0.440785 -1.544865 -6.715036 2.913777 -3.172067 1.687893 -8.609522 -7.748664 -2.519763 11.299004 -3.645516 0.000002 -0.000000 -0.000001 6.387528 1.902623 -8.718119 10.767998 15.272866 -3.738428 5.531215 -50.577561 -14.182321 0.000001 -0.000004 0.000006 0.164323 -6.961424 -11.285134 9.831926 -2.435782 -2.897903 -5.381870 50.662925 27.655497 0.000002 0.000003 0.000002 -10.973557 0.232393 -16.499951 11.103558 -1.722313 -3.906391 -15.816522 2.623794 8.705298 0.000001 0.000001 -0.000001 -12.266117 12.224660 6.553504 -2.924300 -4.898837 20.960452 13.631939 -1.817840 7.500456 -0.000002 0.000002 0.000001 
7.799276 98.039833 -3.744807 1.365889 -5.366169 15.670358 7.300768 -0.343865 -1.847099 -6.240885 2.654916 -2.914542 1.752911 -8.949768 -7.647378 -2.223572 10.206284 -2.908167 0.000004 0.000000 -0.000000 6.456454 1.442509 -8.952583 10.658118 14.642066 -4.264043 4.921150 -50.583578 -14.026466 -0.000001 -0.000004 -0.000000 0.439719 -6.183763 -10.949662 9.790894 -4.506288 -1.399289 -5.753296 50.541545 27.560974 -0.000001 -0.000001 0.000001 -10.012270 0.033594 -17.030732 11.602592 -2.236926 -1.593500 -14.964581 2.471367 7.403423 -0.000001 0.000001 0.000001 -13.996767 13.187201 10.883221 -1.885694 -3.254131 14.052964 19.201984 1.756159 13.789461 0.000001 0.000000 0.000002 
7.440698 98.104347 -3.781656 0.879778 -3.939820 15.626585 7.756926 -0.291068 -2.235058 -6.171675 2.227339 -2.555076 1.819755 -9.290607 -7.688749 -1.382415 9.098721 -2.427568 0.000002 -0.000000 -0.000001 6.596490 1.192300 -9.254468 10.747960 13.634485 -4.737471 4.480376 -50.798388 -12.490624 0.000002 0.000002 0.000000 0.378011 -6.490088 -10.327803 10.041425 -5.748893 -0.431587 -5.956366 50.827881 27.658352 0.000002 -0.000001 0.000003 -9.516316 -0.089757 -17.398399 12.649327 -2.553790 0.162173 -13.339709 2.408482 7.334738 -0.000001 0.000001 -0.000001 -14.915687 13.365347 14.715342 -0.480874 -2.070854 7.048366 22.630343 5.817870 18.403209 -0.000000 -0.000001 0.000001 
6.990067 98.315918 -3.806851 1.494529 -3.155453 15.315434 7.211070 -0.023518 -3.250150 -4.609594 1.825858 -1.967714 0.938118 -9.004306 -7.165911 -1.519668 8.151646 -1.494741 -0.000001 0.000001 -0.000000 7.032430 0.548852 -9.564941 11.144791 12.579985 -6.468031 3.844890 -50.820610 -10.004900 -0.000002 -0.000001 -0.000002 0.691723 -6.517392 -9.024371 10.491662 -6.497416 0.912733 -5.031609 49.813604 27.107682 0.000001 0.000004 0.000003 -8.619128 -0.118313 -16.893988 10.980445 -2.572254 1.682862 -11.611113 2.247287 6.863015 0.000001 0.000001 -0.000000 -15.587526 12.952834 20.148781 0.879367 -0.365638 -2.098152 23.165669 9.964948 21.277614 -0.000000 -0.000001 -0.000001 
6.429128 98.662010 -3.834265 1.647328 -1.751350 15.018968 7.296955 0.225860 -4.242126 -2.579833 1.374829 -1.201417 -1.059408 -10.295982 -7.232083 -1.781726 7.260130 -1.080706 -0.000001 0.000000 -0.000000 6.607001 2.190290 -10.368277 10.713223 10.191945 -7.494554 3.174122 -49.511242 -9.758395 0.000001 -0.000003 0.000003 1.435865 -5.105934 -7.216389 10.466020 -6.387964 3.037064 -4.064188 48.023074 26.014235 0.000002 -0.000001 0.000001 -6.729655 -0.335637 -16.444819 8.212518 -2.139732 3.759831 -9.851129 1.897126 5.725003 0.000001 0.000001 -0.000003 -15.084461 11.652009 26.255006 2.010544 1.531911 -12.498985 21.794703 13.209581 22.474304 -0.000001 -0.000001 0.000000 
5.833880 99.034012 -3.838578 1.371139 -0.108328 14.820524 7.646469 0.343679 -4.848553 -2.362954 0.723642 -0.595573 -1.254090 -10.650563 -7.164022 -1.953997 6.182197 -0.567515 -0.000001 0.000000 -0.000001 6.266007 2.368824 -11.059085 10.489021 9.890771 -9.082278 1.987807 -49.157746 -11.388003 0.000001 0.000001 0.000002 1.336736 -4.897769 -5.768467 10.252263 -7.384863 4.658603 -3.507360 46.281642 27.399169 0.000001 -0.000006 0.000001 -5.385672 -0.514949 -16.106899 7.203789 -1.858324 5.642446 -8.203943 1.383654 4.167271 -0.000002 -0.000001 -0.000001 -14.142427 10.368385 31.010964 3.474176 2.576679 -21.404672 20.753226 15.770255 23.634323 0.000003 -0.000003 -0.000003 
